<mxfile host="app.diagrams.net" modified="2024-11-11T13:08:26.186Z" agent="Mozilla/5.0 (Windows NT 10.0; Win64; x64) AppleWebKit/537.36 (KHTML, like Gecko) Chrome/130.0.0.0 Safari/537.36 Edg/130.0.0.0" etag="UoXN_w7S_HnoFfTKynzp" version="24.6.4" type="device">
  <diagram name="Page-1" id="QnGwJCD-7rowmGhld251">
    <mxGraphModel dx="1453" dy="858" grid="1" gridSize="10" guides="1" tooltips="1" connect="1" arrows="1" fold="1" page="1" pageScale="1" pageWidth="850" pageHeight="1100" math="0" shadow="0">
      <root>
        <mxCell id="0" />
        <mxCell id="1" parent="0" />
        <mxCell id="x1sGUrjQBATrNaIirOv0-1" value="&lt;span style=&quot;font-size: 30px;&quot;&gt;User&lt;/span&gt;" style="swimlane;whiteSpace=wrap;html=1;startSize=70;fillColor=#0050ef;strokeColor=#000000;fontColor=#ffffff;" vertex="1" parent="1">
          <mxGeometry width="420" height="1100" as="geometry" />
        </mxCell>
        <mxCell id="x1sGUrjQBATrNaIirOv0-3" value="" style="ellipse;whiteSpace=wrap;html=1;aspect=fixed;fillColor=#1A1A1A;strokeColor=#6c8ebf;" vertex="1" parent="x1sGUrjQBATrNaIirOv0-1">
          <mxGeometry x="180" y="110" width="60" height="60" as="geometry" />
        </mxCell>
        <mxCell id="x1sGUrjQBATrNaIirOv0-4" value="" style="rounded=1;whiteSpace=wrap;html=1;fillColor=#1ba1e2;fontColor=#ffffff;strokeColor=#006EAF;" vertex="1" parent="x1sGUrjQBATrNaIirOv0-1">
          <mxGeometry x="110" y="240" width="200" height="80" as="geometry" />
        </mxCell>
        <mxCell id="x1sGUrjQBATrNaIirOv0-2" value="&lt;font style=&quot;font-size: 30px;&quot;&gt;Vertical Container&lt;/font&gt;" style="swimlane;whiteSpace=wrap;html=1;startSize=70;fillColor=#0050ef;fontColor=#ffffff;strokeColor=#000000;" vertex="1" parent="1">
          <mxGeometry x="420" width="430" height="1100" as="geometry" />
        </mxCell>
      </root>
    </mxGraphModel>
  </diagram>
</mxfile>
